<svg width="29" height="29" viewBox="0 0 29 29" fill="none" xmlns="http://www.w3.org/2000/svg">
<g id="solar:hamburger-menu-bold-duotone">
<path id="Vector" d="M14.1298 26.495C8.61443 26.495 5.85674 26.495 4.14269 24.781C2.42981 23.0693 2.42981 20.3104 2.42981 14.795C2.42981 9.27966 2.42981 6.52197 4.14269 4.80792C5.85791 3.09504 8.61443 3.09504 14.1298 3.09504C19.6452 3.09504 22.4029 3.09504 24.1158 4.80792C25.8298 6.52314 25.8298 9.27966 25.8298 14.795C25.8298 20.3104 25.8298 23.0681 24.1158 24.781C22.404 26.495 19.6452 26.495 14.1298 26.495Z" fill="white"/>
<path id="Vector_2" d="M22.0273 10.115C22.0273 10.3478 21.9348 10.571 21.7703 10.7355C21.6057 10.9001 21.3825 10.9925 21.1498 10.9925H7.1098C6.87707 10.9925 6.65388 10.9001 6.48931 10.7355C6.32475 10.571 6.2323 10.3478 6.2323 10.115C6.2323 9.88231 6.32475 9.65912 6.48931 9.49455C6.65388 9.32999 6.87707 9.23754 7.1098 9.23754H21.1498C21.3825 9.23754 21.6057 9.32999 21.7703 9.49455C21.9348 9.65912 22.0273 9.88231 22.0273 10.115ZM22.0273 14.795C22.0273 15.0278 21.9348 15.251 21.7703 15.4155C21.6057 15.5801 21.3825 15.6725 21.1498 15.6725H7.1098C6.87707 15.6725 6.65388 15.5801 6.48931 15.4155C6.32475 15.251 6.2323 15.0278 6.2323 14.795C6.2323 14.5623 6.32475 14.3391 6.48931 14.1746C6.65388 14.01 6.87707 13.9175 7.1098 13.9175H21.1498C21.3825 13.9175 21.6057 14.01 21.7703 14.1746C21.9348 14.3391 22.0273 14.5623 22.0273 14.795ZM22.0273 19.475C22.0273 19.7078 21.9348 19.931 21.7703 20.0955C21.6057 20.2601 21.3825 20.3525 21.1498 20.3525H7.1098C6.87707 20.3525 6.65388 20.2601 6.48931 20.0955C6.32475 19.931 6.2323 19.7078 6.2323 19.475C6.2323 19.2423 6.32475 19.0191 6.48931 18.8546C6.65388 18.69 6.87707 18.5975 7.1098 18.5975H21.1498C21.3825 18.5975 21.6057 18.69 21.7703 18.8546C21.9348 19.0191 22.0273 19.2423 22.0273 19.475Z" fill="black" fill-opacity="0.86"/>
</g>
</svg>
